# xmcd
#
# Track frame offsets:
#	150
#	19261
#	35335
#	54972
#	75338
#	91792
#	108172
#	128722
#	142356
#	156764
#	170319
#	205857
#
# Disc length: 3291 seconds
#
# Revision: 0
# Processed by: cddbd v1.5.1PL0 Copyright (c) Steve Scherf et al.
# Submitted via: dBpowerAMP V4.0
#
DISCID=8f0cd90c
DTITLE=Humane - Welcome to This Wonderland
DYEAR=1900
DGENRE=
TTITLE0=Crucify
TTITLE1=Freedom
TTITLE2=Nothing Gets Me Moving
TTITLE3=In this moment
TTITLE4=Wish God Was a Woman
TTITLE5=Rescue Me
TTITLE6=Novocaine
TTITLE7=Leaving You
TTITLE8=Angel
TTITLE9=Cat Claws
TTITLE10=Here Comes Winter
TTITLE11=DATA
EXTD=
EXTT0=
EXTT1=
EXTT2=
EXTT3=
EXTT4=
EXTT5=
EXTT6=
EXTT7=
EXTT8=
EXTT9=
EXTT10=
EXTT11=
PLAYORDER=
